<svg width="87" height="201" viewBox="0 0 87 201" fill="none" xmlns="http://www.w3.org/2000/svg">
<path d="M46.4643 177.208C42.2112 195.009 25.6413 200.114 17.888 200.442C-2.72152 193.429 -4.04038 172.271 6.63764 153.226C17.3157 134.18 15.4124 125.262 16.7702 119.215C18.128 113.167 6.26234 78.3817 5.89312 65.9892C5.5239 53.5967 16.0289 46.6613 31.6362 47.0015C47.2434 47.3417 64.4486 58.5088 74.0192 73.3502C83.5899 88.1917 79.3322 97.6915 78.2421 105.74C77.37 112.178 66.0793 130.813 60.543 139.325C57.6222 144.536 50.7175 159.407 46.4643 177.208Z" fill="#D9D9D9"/>
<path d="M39.1398 24.1604C47.095 11.4289 39.0675 2.91166 34.0593 0.244479C20.4054 -1.93708 13.7225 13.5981 13.7408 26.0033C13.7591 38.4085 29.1957 40.0747 39.1398 24.1604Z" fill="#D9D9D9"/>
<path d="M44.2242 37.7967C48.2082 42.9542 55.1752 36.8149 58.1607 33.1005C60.0367 29.2194 62.1615 20.7488 55.6534 17.915C47.5183 14.3726 39.2443 31.3498 44.2242 37.7967Z" fill="#D9D9D9"/>
<path d="M59.3901 34.3892C60.8695 32.0541 64.5715 27.8974 67.5444 29.9512C69.0874 30.5864 71.9596 32.9709 71.1042 37.427C70.0348 42.997 66.8522 48.3192 60.7641 46.0009C55.8936 44.1463 57.8187 37.487 59.3901 34.3892Z" fill="#D9D9D9"/>
<path d="M77.6987 50.3213C80.0517 45.2433 77.9826 42.6523 76.654 41.9915C75.4864 40.878 72.4986 39.9282 69.8883 45.0368C67.278 50.1453 69.3268 53.2295 70.6775 54.133C72.0375 54.9782 75.3457 55.3992 77.6987 50.3213Z" fill="#D9D9D9"/>
<path d="M84.2258 61.4107C87.8103 57.3907 85.9885 53.5594 84.6296 52.1463C81.5691 51.6573 79.8355 51.8288 77.7129 56.6924C75.5903 61.5559 79.7451 66.4357 84.2258 61.4107Z" fill="#D9D9D9"/>
</svg>
