<svg width="87" height="201" viewBox="0 0 87 201" fill="none" xmlns="http://www.w3.org/2000/svg">
<path d="M40.356 177.208C44.6091 195.009 61.179 200.114 68.9323 200.442C89.5418 193.429 90.8607 172.271 80.1827 153.226C69.5047 134.18 71.4079 125.262 70.0501 119.215C68.6923 113.167 80.558 78.3817 80.9272 65.9892C81.2964 53.5967 70.7914 46.6613 55.1841 47.0015C39.5769 47.3417 22.3717 58.5088 12.8011 73.3502C3.23043 88.1917 7.48809 97.6915 8.57822 105.74C9.45032 112.178 20.741 130.813 26.2773 139.325C29.1981 144.536 36.1029 159.407 40.356 177.208Z" fill="#D9D9D9"/>
<path d="M47.6805 24.1604C39.7253 11.4289 47.7528 2.91166 52.761 0.244479C66.4149 -1.93708 73.0978 13.5981 73.0795 26.0033C73.0612 38.4085 57.6246 40.0747 47.6805 24.1604Z" fill="#D9D9D9"/>
<path d="M42.5961 37.7967C38.6121 42.9542 31.6451 36.8149 28.6596 33.1005C26.7837 29.2194 24.6588 20.7488 31.1669 17.915C39.302 14.3726 47.5761 31.3498 42.5961 37.7967Z" fill="#D9D9D9"/>
<path d="M27.4303 34.3892C25.9508 32.0541 22.2488 27.8974 19.2759 29.9512C17.7329 30.5864 14.8607 32.9709 15.7162 37.427C16.7855 42.997 19.9681 48.3192 26.0562 46.0009C30.9267 44.1463 29.0016 37.487 27.4303 34.3892Z" fill="#D9D9D9"/>
<path d="M9.12162 50.3213C6.76863 45.2433 8.83768 42.6523 10.1663 41.9915C11.3339 40.878 14.3218 39.9282 16.932 45.0368C19.5423 50.1453 17.4935 53.2295 16.1428 54.133C14.7828 54.9782 11.4746 55.3992 9.12162 50.3213Z" fill="#D9D9D9"/>
<path d="M2.59452 61.4107C-0.99 57.3907 0.831764 53.5594 2.19071 52.1463C5.25121 51.6573 6.98482 51.8288 9.10742 56.6924C11.23 61.5559 7.07517 66.4357 2.59452 61.4107Z" fill="#D9D9D9"/>
</svg>
